<svg width="100" height="100" viewBox="0 0 100 100" fill="none" xmlns="http://www.w3.org/2000/svg">
<rect width="100" height="100" rx="20" fill="#2CD673"/>
<path fill-rule="evenodd" clip-rule="evenodd" d="M90 50C90 72.0914 72.0914 90 50 90C27.9086 90 10 72.0914 10 50C10 27.9086 27.9086 10 50 10C72.0914 10 90 27.9086 90 50ZM70.8 42.432L74.864 46.496L74.872 46.504C76.744 48.376 76.744 51.416 74.872 53.288L67.744 60.416C66.48 61.672 64.328 60.784 64.328 59V57.448V48.16C64.32 47.584 64.096 47.032 63.688 46.624C62.32 45.256 59.976 46.224 59.976 48.16V64.024C59.976 66.5839 59.008 68.92 57.416 70.688L57.432 70.704L53.376 74.76C51.496 76.6399 48.456 76.6319 46.584 74.76L42.528 70.696L27.352 55.504L25.104 53.248C23.232 51.376 23.232 48.336 25.104 46.464L32.272 39.296C33.536 38.032 35.688 38.928 35.688 40.712V42.344V51.648C35.688 52.216 35.912 52.752 36.312 53.16C37.664 54.52 39.984 53.56 39.984 51.64V46.016V35.728C39.984 33.168 40.952 30.832 42.544 29.064L42.528 29.048L46.584 24.992C48.464 23.112 51.504 23.12 53.376 24.992L57.432 29.056L70.8 42.432Z" fill="#002D2B"/>
</svg>
