<svg width="39" height="33" viewBox="0 0 39 33" fill="none" xmlns="http://www.w3.org/2000/svg">
<path d="M35.6911 17.2497C35.2298 16.6409 35.2298 15.8589 35.6911 15.2502L36.8584 13.71C37.554 12.7912 37.1654 11.5662 36.0204 11.0653L34.0996 10.2256C33.3402 9.89299 32.8789 9.21644 32.919 8.49345L33.0198 6.66588C33.0792 5.57637 32.0187 4.67891 30.7313 4.72911L28.5717 4.81447C27.7174 4.84836 26.9179 4.45799 26.5249 3.81533L25.5326 2.18985C24.9408 1.22084 23.4918 0.89198 22.4075 1.48067L20.5876 2.46851C19.8683 2.85887 18.9443 2.85887 18.2249 2.46851L16.405 1.48067C15.3193 0.89198 13.8717 1.22084 13.2799 2.18985L12.2876 3.81533C11.8946 4.45799 11.0951 4.84836 10.2408 4.81447L8.08128 4.72911C6.79386 4.67891 5.73338 5.57637 5.7927 6.66588L5.89356 8.49345C5.93361 9.21644 5.47233 9.89299 4.71293 10.2256L2.79219 11.0653C1.64716 11.5662 1.25856 12.7925 1.95418 13.71L3.12146 15.2502C3.58273 15.8589 3.58273 16.6409 3.12146 17.2497L1.95418 18.7898C1.25856 19.7086 1.64716 20.9337 2.79219 21.4345L4.71293 22.2742C5.47233 22.6069 5.93361 23.2834 5.89356 24.0064L5.7927 25.834C5.73338 26.9235 6.79386 27.821 8.08128 27.7708L10.2408 27.6854C11.0951 27.6515 11.8946 28.0419 12.2876 28.6845L13.2799 30.31C13.8717 31.279 15.3208 31.6079 16.405 31.0192L18.2249 30.0314C18.9443 29.641 19.8683 29.641 20.5876 30.0314L22.4075 31.0192C23.4932 31.6079 24.9408 31.279 25.5326 30.31L26.5249 28.6845C26.9179 28.0419 27.7174 27.6515 28.5717 27.6854L30.7313 27.7708C32.0187 27.821 33.0792 26.9235 33.0198 25.834L32.919 24.0064C32.8789 23.2834 33.3402 22.6069 34.0996 22.2742L36.0204 21.4345C37.1654 20.9337 37.554 19.7074 36.8584 18.7898L35.6911 17.2497ZM17.2119 23.5031L8.72648 16.3221L11.4229 14.0414L17.2119 18.9417L27.3896 10.3285L30.0861 12.6092L17.2134 23.5018L17.2119 23.5031Z" fill="#707673" fill-opacity="0.26"/>
<rect x="6.96768" y="8.7522" width="23.5676" height="14.9954" fill="#D9D9D9"/>
</svg>
