<svg width="33" height="29" viewBox="0 0 33 29" fill="none" xmlns="http://www.w3.org/2000/svg">
<path d="M30.6631 15.314C30.2516 14.7626 30.2516 14.0543 30.6631 13.5028L31.7046 12.1078C32.3252 11.2756 31.9785 10.1659 30.9569 9.71231L29.2432 8.9517C28.5657 8.65041 28.1541 8.03761 28.1898 7.38273L28.2798 5.72736C28.3328 4.7405 27.3866 3.92759 26.2379 3.97307L24.3112 4.05038C23.549 4.08108 22.8357 3.72749 22.485 3.14538L21.5997 1.67305C21.0717 0.795337 19.7788 0.49746 18.8115 1.03068L17.1878 1.92545C16.546 2.27904 15.7216 2.27904 15.0798 1.92545L13.456 1.03068C12.4874 0.49746 11.1958 0.795337 10.6678 1.67305L9.78252 3.14538C9.43184 3.72749 8.71857 4.08108 7.95634 4.05038L6.0296 3.97307C4.88096 3.92759 3.93479 4.7405 3.98772 5.72736L4.07771 7.38273C4.11344 8.03761 3.70189 8.65041 3.02435 8.9517L1.31065 9.71231C0.289058 10.1659 -0.0576507 11.2767 0.562982 12.1078L1.60443 13.5028C2.01598 14.0543 2.01598 14.7626 1.60443 15.314L0.562982 16.709C-0.0576507 17.5412 0.289058 18.6509 1.31065 19.1045L3.02435 19.8651C3.70189 20.1664 4.11344 20.7792 4.07771 21.4341L3.98772 23.0895C3.93479 24.0763 4.88096 24.8892 6.0296 24.8438L7.95634 24.7665C8.71857 24.7358 9.43184 25.0893 9.78252 25.6715L10.6678 27.1438C11.1958 28.0215 12.4887 28.3194 13.456 27.7862L15.0798 26.8914C15.7216 26.5378 16.546 26.5378 17.1878 26.8914L18.8115 27.7862C19.7802 28.3194 21.0717 28.0215 21.5997 27.1438L22.485 25.6715C22.8357 25.0893 23.549 24.7358 24.3112 24.7665L26.2379 24.8438C27.3866 24.8892 28.3328 24.0763 28.2798 23.0895L28.1898 21.4341C28.1541 20.7792 28.5657 20.1664 29.2432 19.8651L30.9569 19.1045C31.9785 18.6509 32.3252 17.5401 31.7046 16.709L30.6631 15.314ZM14.1759 20.9782L6.60524 14.4738L9.01103 12.408L14.1759 16.8466L23.2565 9.04493L25.6623 11.1107L14.1772 20.9771L14.1759 20.9782Z" fill="#00D966"/>
</svg>
