<svg width="24" height="24" viewBox="0 0 24 24" fill="none" xmlns="http://www.w3.org/2000/svg">
<path fill-rule="evenodd" clip-rule="evenodd" d="M2.79999 12C2.79999 6.91845 6.91839 2.80005 12 2.80005C17.0816 2.80005 21.2 6.91845 21.2 12C21.2 17.0816 17.0816 21.2 12 21.2C6.91839 21.2 2.79999 17.0816 2.79999 12ZM16.9616 9.76573C17.274 9.45332 17.274 8.94678 16.9616 8.63436C16.6492 8.32194 16.1426 8.32194 15.8302 8.63436L10.7929 13.6717L8.16654 11.0733C7.85245 10.7626 7.34593 10.7653 7.03519 11.0794C6.72445 11.3935 6.72716 11.9 7.04125 12.2108L10.2332 15.3688C10.5461 15.6783 11.0503 15.677 11.3616 15.3657L16.9616 9.76573Z" fill="green"/>
</svg>
