<svg width="20" height="20" viewBox="0 0 20 20" fill="none" xmlns="http://www.w3.org/2000/svg">
<path d="M9.99999 0.800003C4.92699 0.800003 0.799988 4.927 0.799988 10C0.799988 15.073 4.92699 19.2 9.99999 19.2C15.073 19.2 19.2 15.073 19.2 10C19.2 4.927 15.073 0.800003 9.99999 0.800003ZM13.766 12.634C14.078 12.946 14.078 13.453 13.766 13.765C13.61 13.921 13.405 13.999 13.2 13.999C12.995 13.999 12.791 13.921 12.634 13.765L9.99999 11.131L7.36599 13.765C7.20999 13.921 7.00499 13.999 6.79999 13.999C6.59499 13.999 6.39099 13.921 6.23399 13.765C5.92199 13.453 5.92199 12.946 6.23399 12.634L8.86799 10L6.23399 7.366C5.92199 7.054 5.92199 6.547 6.23399 6.235C6.54599 5.923 7.05299 5.923 7.36499 6.235L9.99899 8.869L12.633 6.235C12.945 5.923 13.452 5.923 13.764 6.235C14.076 6.547 14.076 7.054 13.764 7.366L11.13 10L13.764 12.634H13.766Z" fill="black"/>
</svg>
