<svg width="16" height="20" viewBox="0 0 16 20" fill="none" xmlns="http://www.w3.org/2000/svg">
<path d="M15.522 3.73302L12.266 0.477024C11.958 0.169024 11.549 -0.000976562 11.114 -0.000976562H2.56C1.148 -0.000976562 0 1.14702 0 2.55902V17.439C0 18.851 1.148 19.999 2.56 19.999H13.44C14.852 19.999 16 18.851 16 17.439V4.88502C16 4.45402 15.825 4.03402 15.522 3.73302ZM8.3 14.8H3.7C3.313 14.8 3 14.487 3 14.1C3 13.713 3.313 13.4 3.7 13.4H8.3C8.687 13.4 9 13.713 9 14.1C9 14.487 8.687 14.8 8.3 14.8ZM12.3 11.4H3.7C3.313 11.4 3 11.087 3 10.7C3 10.313 3.313 10 3.7 10H12.3C12.687 10 13 10.313 13 10.7C13 11.087 12.687 11.4 12.3 11.4ZM12.3 8.00002H3.7C3.313 8.00002 3 7.68702 3 7.30002C3 6.91302 3.313 6.60002 3.7 6.60002H12.3C12.687 6.60002 13 6.91302 13 7.30002C13 7.68702 12.687 8.00002 12.3 8.00002Z" fill="black"/>
</svg>
