<svg width="22" height="21" viewBox="0 0 22 21" fill="none" xmlns="http://www.w3.org/2000/svg">
<path d="M21.012 10.296C21.012 12.614 19.126 14.5 16.808 14.5H11.899V8.99996C11.899 8.50296 11.496 8.09996 10.999 8.09996C10.502 8.09996 10.099 8.50296 10.099 8.99996V14.5H5.18899C2.87099 14.5 0.984985 12.614 0.984985 10.296C0.984985 8.50896 2.11599 6.93896 3.75299 6.34396C3.75199 6.30896 3.75099 6.27396 3.75099 6.23796C3.75099 4.27596 5.34799 2.67896 7.30999 2.67896C7.76099 2.67896 8.20399 2.76396 8.61899 2.92896C9.65599 1.60696 11.227 0.834961 12.935 0.834961C15.965 0.834961 18.43 3.29996 18.43 6.32996C18.43 6.35896 18.43 6.38696 18.43 6.41596C19.975 7.06096 21.012 8.58196 21.012 10.295V10.296ZM10.1 14.735V17.927L8.63599 16.463C8.28499 16.112 7.71499 16.112 7.36299 16.463C7.01099 16.814 7.01099 17.384 7.36299 17.736L10.363 20.736C10.539 20.912 10.769 21 10.999 21C11.229 21 11.46 20.912 11.635 20.736L14.635 17.736C14.987 17.385 14.987 16.815 14.635 16.463C14.284 16.112 13.714 16.112 13.362 16.463L11.898 17.927V14.5H10.098V14.735H10.1Z" fill="black"/>
</svg>
