<svg width="20" height="20" viewBox="0 0 20 20" fill="none" xmlns="http://www.w3.org/2000/svg">
<path d="M9.99998 0.599976C4.81698 0.599976 0.599976 4.81698 0.599976 9.99998C0.599976 15.183 4.81698 19.4 9.99998 19.4C15.183 19.4 19.4 15.183 19.4 9.99998C19.4 4.81698 15.183 0.599976 9.99998 0.599976ZM12.16 15.5H8.29398C7.90698 15.5 7.59398 15.187 7.59398 14.8C7.59398 14.413 7.90698 14.1 8.29398 14.1H9.59398V9.89997H8.29398C7.90698 9.89997 7.59398 9.58698 7.59398 9.19998C7.59398 8.81297 7.90698 8.49998 8.29398 8.49998H10.294C10.681 8.49998 10.994 8.81297 10.994 9.19998V14.1H12.16C12.547 14.1 12.86 14.413 12.86 14.8C12.86 15.187 12.547 15.5 12.16 15.5ZM9.99998 4.49998C10.828 4.49998 11.5 5.17198 11.5 5.99998C11.5 6.82798 10.828 7.49998 9.99998 7.49998C9.17198 7.49998 8.49998 6.82798 8.49998 5.99998C8.49998 5.17198 9.17198 4.49998 9.99998 4.49998Z" fill="white"/>
</svg>
