<svg width="60" height="61" viewBox="0 0 60 61" fill="none" xmlns="http://www.w3.org/2000/svg">
<rect y="0.5" width="60" height="60" rx="30" fill="#FEEBEB"/>
<path d="M40.6875 33.9875L32.6625 21.075C32.025 20.2125 31.05 19.725 30 19.725C28.9125 19.725 27.9375 20.2125 27.3375 21.075L19.3125 33.9875C18.5625 35 18.45 36.3125 19.0125 37.4375C19.575 38.5625 20.7 39.275 21.975 39.275H38.025C39.3 39.275 40.425 38.5625 40.9875 37.4375C41.55 36.35 41.4375 35 40.6875 33.9875ZM39.4875 36.6875C39.1875 37.25 38.6625 37.5875 38.025 37.5875H21.975C21.3375 37.5875 20.8125 37.25 20.5125 36.6875C20.25 36.125 20.2875 35.4875 20.6625 35L28.6875 22.0875C28.9875 21.675 29.475 21.4125 30 21.4125C30.525 21.4125 31.0125 21.6375 31.3125 22.0875L39.3375 35C39.7125 35.4875 39.75 36.125 39.4875 36.6875Z" fill="#E10E0E"/>
<path d="M30.0002 26.7C29.5502 26.7 29.1377 27.075 29.1377 27.5625V31.65C29.1377 32.1 29.5127 32.5125 30.0002 32.5125C30.4877 32.5125 30.8627 32.1375 30.8627 31.65V27.525C30.8627 27.075 30.4502 26.7 30.0002 26.7Z" fill="#E10E0E"/>
<path d="M30.0002 33.5C29.5502 33.5 29.1377 33.875 29.1377 34.3625V34.55C29.1377 35 29.5127 35.4125 30.0002 35.4125C30.4877 35.4125 30.8627 35.0375 30.8627 34.55V34.325C30.8627 33.875 30.4502 33.5 30.0002 33.5Z" fill="#E10E0E"/>
</svg>
