<svg width="24" height="24" viewBox="0 0 24 24" fill="none" xmlns="http://www.w3.org/2000/svg">
<path d="M7.548 19.621C7.228 19.926 7.216 20.432 7.521 20.752C7.678 20.917 7.889 21 8.1 21C8.298 21 8.497 20.927 8.652 20.779L17.252 12.579C17.252 12.579 17.261 12.569 17.266 12.565C17.27 12.561 17.275 12.557 17.279 12.552C17.284 12.547 17.288 12.541 17.293 12.536C17.303 12.525 17.312 12.515 17.321 12.504C17.329 12.494 17.337 12.484 17.344 12.474C17.352 12.463 17.36 12.451 17.368 12.439C17.375 12.428 17.382 12.418 17.388 12.407C17.395 12.395 17.402 12.384 17.408 12.372C17.414 12.361 17.42 12.349 17.425 12.337C17.43 12.325 17.436 12.313 17.441 12.301C17.446 12.289 17.451 12.277 17.455 12.264C17.459 12.252 17.463 12.24 17.467 12.228C17.471 12.215 17.474 12.202 17.477 12.19C17.48 12.178 17.483 12.166 17.485 12.154C17.488 12.141 17.49 12.128 17.492 12.115C17.494 12.103 17.495 12.09 17.496 12.078C17.496 12.065 17.498 12.052 17.499 12.039V11.963C17.499 11.95 17.497 11.937 17.496 11.924C17.495 11.912 17.493 11.899 17.492 11.887C17.49 11.874 17.488 11.861 17.485 11.848C17.483 11.836 17.48 11.824 17.477 11.812C17.474 11.799 17.47 11.786 17.467 11.774C17.463 11.762 17.46 11.75 17.455 11.738C17.451 11.726 17.446 11.713 17.441 11.701C17.436 11.689 17.431 11.677 17.425 11.665C17.42 11.653 17.414 11.642 17.408 11.63C17.402 11.618 17.395 11.606 17.388 11.595C17.382 11.584 17.375 11.573 17.368 11.563C17.36 11.551 17.352 11.54 17.344 11.528C17.336 11.518 17.329 11.508 17.321 11.498C17.312 11.487 17.303 11.476 17.293 11.466C17.288 11.461 17.284 11.455 17.279 11.45C17.275 11.445 17.27 11.441 17.265 11.437C17.26 11.432 17.257 11.428 17.252 11.423L8.652 3.223C8.332 2.918 7.826 2.93 7.521 3.25C7.216 3.57 7.228 4.076 7.548 4.381L15.541 12.002L7.548 19.623V19.621Z" fill="white"/>
</svg>
