<svg width="24" height="24" viewBox="0 0 24 24" fill="none" xmlns="http://www.w3.org/2000/svg">
<path d="M16.452 19.621C16.772 19.926 16.784 20.432 16.479 20.752C16.322 20.917 16.111 21 15.9 21C15.702 21 15.503 20.927 15.348 20.779L6.74801 12.579C6.74801 12.579 6.73901 12.569 6.73401 12.565C6.73001 12.561 6.72501 12.557 6.72101 12.552C6.71601 12.547 6.71201 12.541 6.70701 12.536C6.69701 12.525 6.68801 12.515 6.67901 12.504C6.67101 12.494 6.66301 12.484 6.65601 12.474C6.64801 12.463 6.64001 12.451 6.63201 12.439C6.62501 12.428 6.61801 12.418 6.61201 12.407C6.60501 12.395 6.59801 12.384 6.59201 12.372C6.58601 12.361 6.58001 12.349 6.57501 12.337C6.57001 12.325 6.56401 12.313 6.55901 12.301C6.55401 12.289 6.54901 12.277 6.54501 12.264C6.54101 12.252 6.53701 12.24 6.53301 12.228C6.52901 12.215 6.52601 12.202 6.52301 12.19C6.52001 12.178 6.51701 12.166 6.51501 12.154C6.51201 12.141 6.51001 12.128 6.50801 12.115C6.50601 12.103 6.50501 12.09 6.50401 12.078C6.50301 12.065 6.50201 12.052 6.50101 12.039C6.50101 12.026 6.50101 12.014 6.50101 12.001C6.50101 11.988 6.50101 11.976 6.50101 11.963C6.50101 11.95 6.50301 11.937 6.50401 11.924C6.50501 11.912 6.50701 11.899 6.50801 11.887C6.51001 11.874 6.51201 11.861 6.51501 11.848C6.51701 11.836 6.52001 11.824 6.52301 11.812C6.52601 11.799 6.53001 11.786 6.53301 11.774C6.53701 11.762 6.54001 11.75 6.54501 11.738C6.54901 11.726 6.55401 11.713 6.55901 11.701C6.56401 11.689 6.56901 11.677 6.57501 11.665C6.58001 11.653 6.58601 11.642 6.59201 11.63C6.59801 11.618 6.60501 11.606 6.61201 11.595C6.61801 11.584 6.62501 11.573 6.63201 11.563C6.64001 11.551 6.64801 11.54 6.65601 11.528C6.66401 11.518 6.67101 11.508 6.67901 11.498C6.68801 11.487 6.69701 11.476 6.70701 11.466C6.71201 11.461 6.71601 11.455 6.72101 11.45C6.72501 11.445 6.73001 11.441 6.73501 11.437C6.74001 11.432 6.74301 11.428 6.74801 11.423L15.348 3.223C15.668 2.918 16.174 2.93 16.479 3.25C16.784 3.57 16.772 4.076 16.452 4.381L8.45901 12.002L16.452 19.623V19.621Z" fill="#5B5B5B"/>
</svg>
