<svg width="24" height="21" viewBox="0 0 24 21" fill="none" xmlns="http://www.w3.org/2000/svg">
<path d="M22.6875 14.9875L14.6625 2.07498C14.025 1.21248 13.05 0.724976 12 0.724976C10.9125 0.724976 9.93753 1.21248 9.33753 2.07498L1.31253 14.9875C0.562527 16 0.450027 17.3125 1.01253 18.4375C1.57503 19.5625 2.70003 20.275 3.97503 20.275H20.025C21.3 20.275 22.425 19.5625 22.9875 18.4375C23.55 17.35 23.4375 16 22.6875 14.9875ZM21.4875 17.6875C21.1875 18.25 20.6625 18.5875 20.025 18.5875H3.97503C3.33753 18.5875 2.81253 18.25 2.51253 17.6875C2.25003 17.125 2.28753 16.4875 2.66253 16L10.6875 3.08748C10.9875 2.67498 11.475 2.41248 12 2.41248C12.525 2.41248 13.0125 2.63748 13.3125 3.08748L21.3375 16C21.7125 16.4875 21.75 17.125 21.4875 17.6875Z" fill="#4B5563"/>
<path d="M12.0002 7.69995C11.5502 7.69995 11.1377 8.07495 11.1377 8.56245V12.65C11.1377 13.1 11.5127 13.5125 12.0002 13.5125C12.4877 13.5125 12.8627 13.1375 12.8627 12.65V8.52495C12.8627 8.07495 12.4502 7.69995 12.0002 7.69995Z" fill="#4B5563"/>
<path d="M12.0002 14.5C11.5502 14.5 11.1377 14.875 11.1377 15.3625V15.55C11.1377 16 11.5127 16.4125 12.0002 16.4125C12.4877 16.4125 12.8627 16.0375 12.8627 15.55V15.325C12.8627 14.875 12.4502 14.5 12.0002 14.5Z" fill="#4B5563"/>
</svg>
