<svg width="14" height="24" viewBox="0 0 24 24" fill="none" xmlns="http://www.w3.org/2000/svg">
<path d="M5.59999 6.19998C5.59999 3.66398 7.66399 1.59998 10.2 1.59998C12.736 1.59998 14.8 3.66398 14.8 6.19998C14.8 6.58698 14.487 6.89998 14.1 6.89998C13.713 6.89998 13.4 6.58698 13.4 6.19998C13.4 4.43498 11.965 2.99998 10.2 2.99998C8.43499 2.99998 6.99999 4.43498 6.99999 6.19998C6.99999 6.58698 6.68699 6.89998 6.29999 6.89998C5.91299 6.89998 5.59999 6.58698 5.59999 6.19998ZM19.49 13.177C18.937 12.238 18.004 11.593 16.93 11.408L12.4 10.627V6.19898C12.4 4.98598 11.413 3.99898 10.2 3.99898C8.98699 3.99898 7.99999 4.98598 7.99999 6.19898V14.648L6.65599 13.304C5.79799 12.446 4.40199 12.446 3.54499 13.304C2.68699 14.162 2.68699 15.558 3.54499 16.415L8.17599 21.046C8.45299 21.609 9.03199 21.999 9.70099 21.999H16.591C17.313 21.999 17.958 21.541 18.196 20.859L19.796 16.273C20.155 15.244 20.044 14.116 19.491 13.177H19.49Z" fill="#ffbf00"/>
</svg>
