<svg width="20" height="20" viewBox="0 0 24 24" fill="none" xmlns="http://www.w3.org/2000/svg">
<path d="M4 13C4 17.411 7.589 21 12 21C16.411 21 20 17.411 20 13C20 12.613 19.687 12.3 19.3 12.3C18.913 12.3 18.6 12.613 18.6 13C18.6 16.639 15.639 19.6 12 19.6C8.361 19.6 5.4 16.639 5.4 13C5.4 9.361 8.361 6.4 12 6.4C12.661 6.4 13.305 6.498 13.924 6.686L11.255 9.355C10.982 9.628 10.982 10.072 11.255 10.345C11.392 10.482 11.571 10.55 11.75 10.55C11.929 10.55 12.108 10.482 12.245 10.345L15.828 6.762C15.959 6.631 16.033 6.453 16.033 6.267C16.033 6.081 15.959 5.903 15.828 5.772L12.245 2.188C11.972 1.915 11.528 1.915 11.255 2.188C10.982 2.461 10.982 2.905 11.255 3.178L13.16 5.083C12.779 5.028 12.392 5 12 5C7.589 5 4 8.589 4 13Z" fill="white"/>
</svg>
