<svg width="24" height="24" viewBox="0 0 24 24" fill="none" xmlns="http://www.w3.org/2000/svg">
<path d="M19.91 5.09597L14.768 21.51C14.683 21.78 14.444 21.973 14.163 21.998C14.142 22 14.121 22.001 14.1 22.001C13.841 22.001 13.602 21.858 13.48 21.626L10.18 15.326C10.051 15.079 10.08 14.78 10.255 14.562L13.481 10.551C11.383 12.262 9.44298 13.843 9.44298 13.843C9.22598 14.02 8.92398 14.051 8.67598 13.921L2.37598 10.621C2.12598 10.49 1.97898 10.221 2.00298 9.93997C2.02698 9.65897 2.21798 9.41997 2.48698 9.33397L19.087 4.03397C19.373 3.94197 19.686 4.04397 19.864 4.28597C20.074 4.57197 19.998 4.81497 19.91 5.09597Z" fill="black"/>
</svg>
