<svg width="24" height="24" viewBox="0 0 24 24" fill="none" xmlns="http://www.w3.org/2000/svg">
<path d="M20.795 6.11008C20.795 6.91108 20.483 7.66508 19.916 8.23108L19.209 8.93808L18.573 8.30208L17.937 7.66608L16.24 5.96908L15.604 5.33308L14.968 4.69708L15.675 3.99008C16.242 3.42308 16.995 3.11108 17.796 3.11108C18.597 3.11108 19.351 3.42308 19.917 3.99008C20.484 4.55708 20.796 5.31008 20.796 6.11108L20.795 6.11008ZM17.229 8.37308L15.532 6.67608L14.896 6.04008L14.26 5.40408L5.563 14.1011C5.457 14.2071 5.379 14.3371 5.337 14.4811L4.072 18.7321C3.978 19.0491 4.065 19.3931 4.3 19.6271C4.471 19.7971 4.7 19.8891 4.935 19.8891C5.022 19.8891 5.11 19.8761 5.195 19.8501L9.43 18.5691C9.572 18.5261 9.701 18.4491 9.806 18.3441L18.503 9.64708L17.867 9.01108L17.231 8.37508L17.229 8.37308Z" fill="#8cceec"/>
</svg>
